# xmcd
#
# Track frame offsets:
# 150
# 17441
# 37761
# 54312
# 76151
# 98849
# 116391
# 135273
# 154564
# 178159
# 196155
# 217021
# 235256
# 254959
# 280137
# 300901
#
# Disc length: 4292 seconds
#
#
# Revision: 0
# Processed by: cddbd v1.5.2PL0 Copyright (c) Steve Scherf et al.
# Submitted via: FreeRIP 2.96 
#
DISCID=c410c210
DTITLE=Markus Heitz - Das Schicksal der Zwerge CD2v10
DYEAR=2008
DGENRE=Speech
TTITLE0=014 Das Schicksal der Zwerge
TTITLE1=015 Das Schicksal der Zwerge
TTITLE2=016 Das Schicksal der Zwerge
TTITLE3=017 Das Schicksal der Zwerge
TTITLE4=018  Das Schicksal der Zwerge
TTITLE5=019 Das Schicksal der Zwerge
TTITLE6=020 Das Schicksal der Zwerge
TTITLE7=021 Das Schicksal der Zwerge
TTITLE8=022 Das Schicksal der Zwerge
TTITLE9=023 Das Schicksal der Zwerge
TTITLE10=024 Das Schicksal der Zwerge
TTITLE11=025 Das Schicksal der Zwerge
TTITLE12=026 Das Schicksal der Zwerge
TTITLE13=027 Das Schicksal der Zwerge
TTITLE14=028 Das Schicksal der Zwerge
TTITLE15=029 Das Schicksal der Zwerge
EXTD=gelesen von Johannes Steck
EXTT0=
EXTT1=
EXTT2=
EXTT3=
EXTT4=
EXTT5=
EXTT6=
EXTT7=
EXTT8=
EXTT9=
EXTT10=
EXTT11=
EXTT12=
EXTT13=
EXTT14=
EXTT15=
PLAYORDER=
